<svg width="229" height="45" viewBox="0 0 229 45" fill="none" xmlns="http://www.w3.org/2000/svg">
    <path d="M16.56 34.36C15.4133 34.36 14.5333 34.0533 13.92 33.44C13.3067 32.8267 13 31.9333 13 30.76V26.72H11.64C11.0533 26.72 10.56 26.84 10.16 27.08C9.78667 27.32 9.42667 27.76 9.08 28.4L6.92 32.4C6.49333 33.1733 5.94667 33.7067 5.28 34C4.61333 34.2933 3.93333 34.3867 3.24 34.28C2.54667 34.1733 1.93333 33.9067 1.4 33.48C0.893333 33.0267 0.56 32.4667 0.4 31.8C0.24 31.1333 0.373333 30.4 0.8 29.6L2.72 26.04C3.04 25.4533 3.41333 24.9067 3.84 24.4C4.26667 23.8933 4.73333 23.4667 5.24 23.12L2.36 18.92C1.85333 18.2 1.62667 17.5067 1.68 16.84C1.73333 16.1467 1.96 15.5733 2.36 15.12C2.78667 14.64 3.30667 14.3067 3.92 14.12C4.56 13.9333 5.2 13.9467 5.84 14.16C6.50667 14.3733 7.09333 14.8533 7.6 15.6L11.56 21.28H13V17.56C13 16.3867 13.3067 15.4933 13.92 14.88C14.5333 14.2667 15.4133 13.96 16.56 13.96C17.7067 13.96 18.5867 14.2667 19.2 14.88C19.8133 15.4933 20.12 16.3867 20.12 17.56V21.28H21.6L25.52 15.6C26.0267 14.8533 26.6 14.3733 27.24 14.16C27.9067 13.9467 28.5467 13.9333 29.16 14.12C29.8 14.28 30.3333 14.6 30.76 15.08C31.1867 15.56 31.4267 16.1333 31.48 16.8C31.5333 17.4667 31.3067 18.1733 30.8 18.92L27.88 23.12C28.4133 23.4667 28.8933 23.8933 29.32 24.4C29.7467 24.9067 30.12 25.4533 30.44 26.04L32.32 29.6C32.7467 30.4 32.88 31.1333 32.72 31.8C32.56 32.4667 32.2133 33.0267 31.68 33.48C31.1733 33.9067 30.5733 34.1733 29.88 34.28C29.1867 34.3867 28.5067 34.2933 27.84 34C27.2 33.7067 26.6667 33.1733 26.24 32.4L24.08 28.4C23.7333 27.76 23.36 27.32 22.96 27.08C22.5867 26.84 22.1067 26.72 21.52 26.72H20.12V30.76C20.12 31.9333 19.8133 32.8267 19.2 33.44C18.5867 34.0533 17.7067 34.36 16.56 34.36ZM35.4772 39.56C34.5172 39.56 33.7705 39.2933 33.2372 38.76C32.7039 38.2267 32.4372 37.4533 32.4372 36.44V31.8C32.4372 29.96 33.2639 28.92 34.9172 28.68C35.5039 27.6133 35.9172 26.4 36.1572 25.04C36.4239 23.68 36.5572 21.88 36.5572 19.64V18.28C36.5572 17 36.8905 16.0267 37.5572 15.36C38.2505 14.6667 39.2239 14.32 40.4772 14.32H49.5972C50.8772 14.32 51.8505 14.6667 52.5172 15.36C53.2105 16.0267 53.5572 17 53.5572 18.28V28.64H53.7172C55.8239 28.64 56.8772 29.6933 56.8772 31.8V36.44C56.8772 38.52 55.8772 39.56 53.8772 39.56C51.8772 39.56 50.8772 38.52 50.8772 36.44V34H38.4372V36.44C38.4372 38.52 37.4505 39.56 35.4772 39.56ZM41.1172 28.68H46.9172V19.68H42.5172V21.56C42.5172 22.84 42.3972 24.12 42.1572 25.4C41.9172 26.68 41.5705 27.7733 41.1172 28.68ZM62.8937 41.56C62.0671 41.56 61.3871 41.3467 60.8537 40.92C60.3471 40.4933 60.0404 39.9333 59.9337 39.24C59.8271 38.5733 59.9471 37.84 60.2937 37.04L62.3337 32.64L56.1337 18.48C55.6004 17.28 55.6004 16.2267 56.1337 15.32C56.6671 14.4133 57.7071 13.96 59.2537 13.96C60.0804 13.96 60.7604 14.16 61.2937 14.56C61.8271 14.9333 62.3071 15.68 62.7337 16.8L66.0937 25.48L69.6137 16.76C70.0404 15.6667 70.5204 14.9333 71.0538 14.56C71.6138 14.16 72.3604 13.96 73.2938 13.96C74.4671 13.96 75.2938 14.4133 75.7738 15.32C76.2804 16.2267 76.2671 17.28 75.7338 18.48L66.6537 38.88C66.1737 39.92 65.6404 40.6267 65.0538 41C64.4938 41.3733 63.7738 41.56 62.8937 41.56ZM141.323 34.36C140.176 34.36 139.296 34.0533 138.683 33.44C138.069 32.8267 137.763 31.9333 137.763 30.76V19.88H134.083C132.109 19.88 131.123 18.9467 131.123 17.08C131.123 15.24 132.109 14.32 134.083 14.32H148.563C150.536 14.32 151.523 15.24 151.523 17.08C151.523 18.9467 150.536 19.88 148.563 19.88H144.883V30.76C144.883 33.16 143.696 34.36 141.323 34.36ZM154.635 34C152.342 34 151.195 32.8533 151.195 30.56V17.72C151.195 15.4533 152.342 14.32 154.635 14.32H163.035C165.835 14.32 167.795 14.7867 168.915 15.72C170.062 16.6533 170.635 17.8933 170.635 19.44C170.635 20.4267 170.369 21.2933 169.835 22.04C169.302 22.76 168.555 23.3067 167.595 23.68C168.929 24.0267 169.889 24.6133 170.475 25.44C171.089 26.24 171.395 27.2267 171.395 28.4C171.395 30.1067 170.715 31.4667 169.355 32.48C167.995 33.4933 165.995 34 163.355 34H154.635ZM157.715 21.88H162.155C162.822 21.88 163.342 21.7333 163.715 21.44C164.089 21.12 164.275 20.68 164.275 20.12C164.275 18.9733 163.569 18.4 162.155 18.4H157.715V21.88ZM157.715 29.88H162.515C164.195 29.88 165.035 29.2267 165.035 27.92C165.035 26.64 164.195 26 162.515 26H157.715V29.88ZM183.025 34.44C180.625 34.44 178.545 34.0267 176.785 33.2C175.052 32.3467 173.719 31.1467 172.785 29.6C171.852 28.0533 171.385 26.2267 171.385 24.12C171.385 22.12 171.825 20.3467 172.705 18.8C173.612 17.2533 174.839 16.0533 176.385 15.2C177.959 14.32 179.745 13.88 181.745 13.88C183.719 13.88 185.425 14.2933 186.865 15.12C188.332 15.9467 189.452 17.1333 190.225 18.68C191.025 20.2 191.425 21.9867 191.425 24.04C191.425 25.08 190.812 25.6 189.585 25.6H178.185C178.425 26.88 178.959 27.8 179.785 28.36C180.612 28.92 181.759 29.2 183.225 29.2C183.785 29.2 184.452 29.1333 185.225 29C185.999 28.8667 186.732 28.6533 187.425 28.36C188.279 28.04 188.999 28.04 189.585 28.36C190.172 28.6533 190.559 29.12 190.745 29.76C190.959 30.3733 190.932 31.0133 190.665 31.68C190.425 32.32 189.932 32.8133 189.185 33.16C188.252 33.6133 187.252 33.9333 186.185 34.12C185.145 34.3333 184.092 34.44 183.025 34.44ZM182.065 18.48C180.999 18.48 180.119 18.8 179.425 19.44C178.759 20.08 178.332 21.0133 178.145 22.24H185.585C185.505 20.9867 185.159 20.0533 184.545 19.44C183.959 18.8 183.132 18.48 182.065 18.48ZM200.275 34.36C199.128 34.36 198.248 34.0533 197.635 33.44C197.022 32.8267 196.715 31.9333 196.715 30.76V19.88H193.035C191.062 19.88 190.075 18.9467 190.075 17.08C190.075 15.24 191.062 14.32 193.035 14.32H207.515C209.488 14.32 210.475 15.24 210.475 17.08C210.475 18.9467 209.488 19.88 207.515 19.88H203.835V30.76C203.835 33.16 202.648 34.36 200.275 34.36ZM217.027 34.44C215.507 34.44 214.161 34.16 212.987 33.6C211.841 33.04 210.934 32.28 210.267 31.32C209.627 30.3333 209.307 29.2133 209.307 27.96C209.307 26.5467 209.681 25.4267 210.427 24.6C211.174 23.7467 212.374 23.1467 214.027 22.8C215.681 22.4267 217.881 22.24 220.627 22.24H222.147V21.68C222.147 20.72 221.894 20.04 221.387 19.64C220.907 19.24 220.067 19.04 218.867 19.04C218.201 19.04 217.467 19.12 216.667 19.28C215.894 19.4133 215.014 19.6667 214.027 20.04C213.147 20.36 212.414 20.3467 211.827 20C211.241 19.6533 210.854 19.16 210.667 18.52C210.507 17.8533 210.574 17.2 210.867 16.56C211.187 15.8933 211.787 15.4 212.667 15.08C213.947 14.6267 215.121 14.32 216.187 14.16C217.281 13.9733 218.281 13.88 219.187 13.88C222.467 13.88 224.894 14.5867 226.467 16C228.067 17.4133 228.867 19.64 228.867 22.68V30.76C228.867 33.16 227.774 34.36 225.587 34.36C223.507 34.36 222.401 33.2933 222.267 31.16C221.894 32.1733 221.254 32.9733 220.347 33.56C219.441 34.1467 218.334 34.44 217.027 34.44ZM218.627 29.8C219.614 29.8 220.441 29.48 221.107 28.84C221.801 28.2 222.147 27.36 222.147 26.32V25.6H220.627C219.054 25.6 217.894 25.7733 217.147 26.12C216.427 26.44 216.067 26.96 216.067 27.68C216.067 28.2933 216.281 28.8 216.707 29.2C217.161 29.6 217.801 29.8 218.627 29.8Z" fill="white"/> <path d="M116.502 0.12389C114.852 0.399473 112.566 1.5866 111.106 2.90092C107.911 5.76275 105.054 11.0624 103.891 16.2561L103.531 17.8884L102.325 16.2561C96.9921 9.04855 89.0991 7.77662 83.682 13.2459C81.1427 15.7897 80 18.7364 80 22.6793C80 25.5199 80.5079 27.5338 81.8833 30.1837C85.3537 36.9248 93.691 42.6273 102.832 44.514C105.181 45.0016 109.054 45.1499 110.874 44.832C112.503 44.5564 112.63 44.5564 113.751 44.7472C114.196 44.8108 114.725 44.7684 115 44.62C115.487 44.3656 120.121 37.4336 122.512 33.3847C124.501 30.0141 126.66 25.6259 127.781 22.7641C131.103 14.1362 130.701 7.98861 126.533 3.81247C123.718 0.993037 119.803 -0.448475 116.502 0.12389ZM120.142 4.42723C122.237 5.19038 123.761 6.97107 124.67 9.7693C125.157 11.232 125.221 11.8044 125.242 14.4118C125.263 16.8921 125.178 17.6976 124.755 19.2875C123.634 23.6333 121.666 27.5762 117.158 34.6566C113.751 39.9987 112.249 42.4577 112.249 42.7333C112.249 42.8605 111.953 42.9029 111.572 42.8393C111.191 42.7757 110.26 42.6061 109.498 42.5001C105.626 41.8641 100.695 40.2318 97.2249 38.4512C90.3265 34.9322 85.9673 30.2685 84.8458 25.2444C84.4014 23.2517 84.5072 19.8175 85.0363 18.2276C86.1789 14.8994 89.1838 13.2035 92.7388 13.8607C94.6856 14.221 96.061 15.0054 97.6481 16.6165C98.9389 17.952 99.4891 18.7364 102.494 23.6333C103.806 25.7531 104.314 26.1559 105.351 25.8803C106.176 25.6683 106.43 24.8628 106.028 23.6545C105.753 22.8065 105.753 22.4249 106.028 20.6654C106.853 15.0902 108.8 10.7868 111.847 7.75543C114.915 4.68162 117.709 3.55808 120.142 4.42723Z" fill="white"/>
</svg>