<svg width="251" height="45" viewBox="0 0 251 45" fill="none" xmlns="http://www.w3.org/2000/svg">
    <path d="M16.56 33.36C15.4133 33.36 14.5333 33.0533 13.92 32.44C13.3067 31.8267 13 30.9333 13 29.76V25.72H11.64C11.0533 25.72 10.56 25.84 10.16 26.08C9.78667 26.32 9.42667 26.76 9.08 27.4L6.92 31.4C6.49333 32.1733 5.94667 32.7067 5.28 33C4.61333 33.2933 3.93333 33.3867 3.24 33.28C2.54667 33.1733 1.93333 32.9067 1.4 32.48C0.893333 32.0267 0.56 31.4667 0.4 30.8C0.24 30.1333 0.373333 29.4 0.8 28.6L2.72 25.04C3.04 24.4533 3.41333 23.9067 3.84 23.4C4.26667 22.8933 4.73333 22.4667 5.24 22.12L2.36 17.92C1.85333 17.2 1.62667 16.5067 1.68 15.84C1.73333 15.1467 1.96 14.5733 2.36 14.12C2.78667 13.64 3.30667 13.3067 3.92 13.12C4.56 12.9333 5.2 12.9467 5.84 13.16C6.50667 13.3733 7.09333 13.8533 7.6 14.6L11.56 20.28H13V16.56C13 15.3867 13.3067 14.4933 13.92 13.88C14.5333 13.2667 15.4133 12.96 16.56 12.96C17.7067 12.96 18.5867 13.2667 19.2 13.88C19.8133 14.4933 20.12 15.3867 20.12 16.56V20.28H21.6L25.52 14.6C26.0267 13.8533 26.6 13.3733 27.24 13.16C27.9067 12.9467 28.5467 12.9333 29.16 13.12C29.8 13.28 30.3333 13.6 30.76 14.08C31.1867 14.56 31.4267 15.1333 31.48 15.8C31.5333 16.4667 31.3067 17.1733 30.8 17.92L27.88 22.12C28.4133 22.4667 28.8933 22.8933 29.32 23.4C29.7467 23.9067 30.12 24.4533 30.44 25.04L32.32 28.6C32.7467 29.4 32.88 30.1333 32.72 30.8C32.56 31.4667 32.2133 32.0267 31.68 32.48C31.1733 32.9067 30.5733 33.1733 29.88 33.28C29.1867 33.3867 28.5067 33.2933 27.84 33C27.2 32.7067 26.6667 32.1733 26.24 31.4L24.08 27.4C23.7333 26.76 23.36 26.32 22.96 26.08C22.5867 25.84 22.1067 25.72 21.52 25.72H20.12V29.76C20.12 30.9333 19.8133 31.8267 19.2 32.44C18.5867 33.0533 17.7067 33.36 16.56 33.36ZM35.4772 38.56C34.5172 38.56 33.7705 38.2933 33.2372 37.76C32.7039 37.2267 32.4372 36.4533 32.4372 35.44V30.8C32.4372 28.96 33.2639 27.92 34.9172 27.68C35.5039 26.6133 35.9172 25.4 36.1572 24.04C36.4239 22.68 36.5572 20.88 36.5572 18.64V17.28C36.5572 16 36.8905 15.0267 37.5572 14.36C38.2505 13.6667 39.2239 13.32 40.4772 13.32H49.5972C50.8772 13.32 51.8505 13.6667 52.5172 14.36C53.2105 15.0267 53.5572 16 53.5572 17.28V27.64H53.7172C55.8239 27.64 56.8772 28.6933 56.8772 30.8V35.44C56.8772 37.52 55.8772 38.56 53.8772 38.56C51.8772 38.56 50.8772 37.52 50.8772 35.44V33H38.4372V35.44C38.4372 37.52 37.4505 38.56 35.4772 38.56ZM41.1172 27.68H46.9172V18.68H42.5172V20.56C42.5172 21.84 42.3972 23.12 42.1572 24.4C41.9172 25.68 41.5705 26.7733 41.1172 27.68ZM62.8937 40.56C62.0671 40.56 61.3871 40.3467 60.8537 39.92C60.3471 39.4933 60.0404 38.9333 59.9337 38.24C59.8271 37.5733 59.9471 36.84 60.2937 36.04L62.3337 31.64L56.1337 17.48C55.6004 16.28 55.6004 15.2267 56.1337 14.32C56.6671 13.4133 57.7071 12.96 59.2537 12.96C60.0804 12.96 60.7604 13.16 61.2937 13.56C61.8271 13.9333 62.3071 14.68 62.7337 15.8L66.0937 24.48L69.6137 15.76C70.0404 14.6667 70.5204 13.9333 71.0538 13.56C71.6138 13.16 72.3604 12.96 73.2938 12.96C74.4671 12.96 75.2938 13.4133 75.7738 14.32C76.2804 15.2267 76.2671 16.28 75.7338 17.48L66.6537 37.88C66.1737 38.92 65.6404 39.6267 65.0538 40C64.4938 40.3733 63.7738 40.56 62.8937 40.56ZM143.563 33.44C141.376 33.44 139.469 33.0267 137.843 32.2C136.216 31.3733 134.949 30.1867 134.043 28.64C133.136 27.0933 132.683 25.2667 132.683 23.16C132.683 21.0267 133.136 19.2 134.043 17.68C134.949 16.1333 136.216 14.9467 137.843 14.12C139.469 13.2933 141.376 12.88 143.563 12.88C145.749 12.88 147.656 13.2933 149.283 14.12C150.909 14.9467 152.163 16.1333 153.043 17.68C153.949 19.2 154.403 21.0267 154.403 23.16C154.403 25.2667 153.949 27.0933 153.043 28.64C152.163 30.1867 150.909 31.3733 149.283 32.2C147.656 33.0267 145.749 33.44 143.563 33.44ZM143.563 28.2C144.629 28.2 145.509 27.8 146.203 27C146.896 26.2 147.243 24.92 147.243 23.16C147.243 21.3733 146.896 20.0933 146.203 19.32C145.509 18.52 144.629 18.12 143.563 18.12C142.469 18.12 141.576 18.52 140.883 19.32C140.189 20.0933 139.843 21.3733 139.843 23.16C139.843 24.92 140.189 26.2 140.883 27C141.576 27.8 142.469 28.2 143.563 28.2ZM163.408 33.36C162.262 33.36 161.382 33.0533 160.768 32.44C160.155 31.8267 159.84830.9333 159.848 29.76V18.88H156.168C154.195 18.88 153.208 17.9467 153.208 16.08C153.208 14.24 154.195 13.32 156.168 13.32H170.648C172.622 13.32 173.608 14.24 173.608 16.08C173.608 17.9467 172.622 18.88 170.648 18.88H166.968V29.76C166.968 32.16 165.782 33.36 163.408 33.36ZM176.721 33C174.428 33 173.281 31.8533 173.281 29.56V16.72C173.281 14.4533 174.428 13.32 176.721 13.32H185.121C187.921 13.32 189.881 13.7867 191.001 14.72C192.148 15.6533 192.721 16.8933 192.721 18.44C192.721 19.4267 192.454 20.2933 191.921 21.04C191.388 21.76 190.641 22.3067 189.681 22.68C191.014 23.0267 191.974 23.6133 192.561 24.44C193.174 25.24 193.481 26.2267 193.481 27.4C193.481 29.1067 192.801 30.4667 191.441 31.48C190.081 32.4933 188.081 33 185.441 33H176.721ZM179.801 20.88H184.241C184.908 20.88 185.428 20.7333 185.801 20.44C186.174 20.12 186.361 19.68 186.361 19.12C186.361 17.9733 185.654 17.4 184.241 17.4H179.801V20.88ZM179.801 28.88H184.601C186.281 28.88 187.121 28.2267 187.121 26.92C187.121 25.64 186.281 25 184.601 25H179.801V28.88ZM205.111 33.44C202.711 33.44 200.631 33.0267 198.871 32.2C197.138 31.3467 195.804 30.1467 194.871 28.6C193.938 27.0533 193.471 25.2267 193.471 23.12C193.471 21.12 193.911 19.3467 194.791 17.8C195.698 16.2533 196.924 15.0533 198.471 14.2C200.044 13.32 201.831 12.88 203.831 12.88C205.804 12.88 207.511 13.2933 208.951 14.12C210.418 14.9467 211.538 16.1333 212.311 17.68C213.111 19.2 213.511 20.9867 213.511 23.04C213.511 24.08 212.898 24.6 211.671 24.6H200.271C200.511 25.88 201.044 26.8 201.871 27.36C202.698 27.92 203.844 28.2 205.311 28.2C205.871 28.2 206.538 28.1333 207.311 28C208.084 27.8667 208.818 27.6533 209.511 27.36C210.364 27.04 211.084 27.04 211.671 27.36C212.258 27.6533 212.644 28.12 212.831 28.76C213.044 29.3733 213.018 30.0133 212.751 30.68C212.511 31.32 212.018 31.8133 211.271 32.16C210.338 32.6133 209.338 32.9333 208.271 33.12C207.231 33.3333 206.178 33.44 205.111 33.44ZM204.151 17.48C203.084 17.48 202.204 17.8 201.511 18.44C200.844 19.08 200.418 20.0133 200.231 21.24H207.671C207.591 19.9867 207.244 19.0533 206.631 18.44C206.044 17.8 205.218 17.48 204.151 17.48ZM222.361 33.36C221.214 33.36 220.334 33.0533 219.721 32.44C219.107 31.8267 218.801 30.9333 218.801 29.76V18.88H215.121C213.147 18.88 212.161 17.9467 212.161 16.08C212.161 14.24 213.147 13.32 215.121 13.32H229.601C231.574 13.32 232.561 14.24 232.561 16.08C232.561 17.9467 231.574 18.88 229.601 18.88H225.921V29.76C225.921 32.16 224.734 33.36 222.361 33.36ZM239.113 33.44C237.593 33.44 236.246 33.16 235.073 32.6C233.926 32.04 233.02 31.28 232.353 30.32C231.713 29.3333 231.393 28.2133 231.393 26.96C231.393 25.5467 231.766 24.4267 232.513 23.6C233.26 22.7467 234.46 22.1467 236.113 21.8C237.766 21.4267 239.966 21.24 242.713 21.24H244.233V20.68C244.233 19.72 243.98 19.04 243.473 18.64C242.993 18.24 242.153 18.04 240.953 18.04C240.286 18.04 239.553 18.12 238.753 18.28C237.98 18.4133 237.1 18.6667 236.113 19.04C235.233 19.36 234.5 19.3467 233.913 19C233.326 18.6533 232.94 18.16 232.753 17.52C232.593 16.8533 232.66 16.2 232.953 15.56C233.273 14.8933 233.873 14.4 234.753 14.08C236.033 13.6267 237.206 13.32 238.273 13.16C239.366 12.9733 240.366 12.88 241.273 12.88C244.553 12.88 246.98 13.5867 248.553 15C250.153 16.4133 250.953 18.64 250.953 21.68V29.76C250.953 32.16 249.86 33.36 247.673 33.36C245.593 33.36 244.486 32.2933 244.353 30.16C243.98 31.1733 243.34 31.9733 242.433 32.56C241.526 33.1467 240.42 33.44 239.113 33.44ZM240.713 28.8C241.7 28.8 242.526 28.48 243.193 27.84C243.886 27.2 244.233 26.36 244.233 25.32V24.6H242.713C241.14 24.6 239.98 24.7733 239.233 25.12C238.513 25.44 238.153 25.96 238.153 26.68C238.153 27.2933 238.366 27.8 238.793 28.2C239.246 28.6 239.886 28.8 240.713 28.8Z" fill="#0E73E8"/><path d="M116.502 0.123892C114.852 0.399475 112.566 1.5866 111.106 2.90092C107.911 5.76275 105.054 11.0624 103.891 16.2561L103.531 17.8884L102.325 16.2561C96.9921 9.04855 89.0991 7.77663 83.682 13.2459C81.1427 15.7897 80 18.7364 80 22.6793C80 25.5199 80.5079 27.5338 81.8833 30.1837C85.3537 36.9248 93.691 42.6273 102.832 44.514C105.181 45.0016 109.054 45.1499 110.874 44.832C112.503 44.5564 112.63 44.5564 113.751 44.7472C114.196 44.8108 114.725 44.7684 115 44.62C115.487 44.3656 120.121 37.4336 122.512 33.3847C124.501 30.0141 126.66 25.6259 127.781 22.7641C131.103 14.1362 130.701 7.98861 126.533 3.81247C123.718 0.993039 119.803 -0.448473 116.502 0.123892ZM120.142 4.42723C122.237 5.19038 123.76 6.97107 124.67 9.7693C125.157 11.232 125.221 11.8044 125.242 14.4118C125.263 16.8921 125.178 17.6976 124.755 19.2875C123.634 23.6333 121.666 27.5762 117.158 34.6566C113.751 39.9987 112.249 42.4577 112.249 42.7333C112.249 42.8605 111.953 42.9029 111.572 42.8393C111.191 42.7757 110.26 42.6061 109.498 42.5001C105.626 41.8641 100.695 40.2318 97.2249 38.4512C90.3265 34.9322 85.9673 30.2685 84.8458 25.2444C84.4014 23.2517 84.5072 19.8175 85.0363 18.2276C86.1789 14.8994 89.1838 13.2035 92.7388 13.8607C94.6856 14.221 96.061 15.0054 97.6481 16.6165C98.9389 17.952 99.4891 18.7364 102.494 23.6333C103.806 25.7531 104.314 26.1559 105.351 25.8803C106.176 25.6683 106.43 24.8628 106.028 23.6545C105.753 22.8065 105.753 22.4249 106.028 20.6654C106.853 15.0902 108.8 10.7868 111.847 7.75543C114.915 4.68161 117.709 3.55808 120.142 4.42723Z" fill="#E34C82"/>
</svg>